<?xml version="1.0" encoding="utf-8"?>
<!-- Generator: Adobe Illustrator 21.0.0, SVG Export Plug-In . SVG Version: 6.00 Build 0)  -->
<svg version="1.1" id="Layer_1" xmlns="http://www.w3.org/2000/svg" xmlns:xlink="http://www.w3.org/1999/xlink" x="0px" y="0px"
	 viewBox="0 0 39 39" style="enable-background:new 0 0 39 39;" xml:space="preserve">
<style type="text/css">
	.st0{fill:#FFCB05;}
	.st1{fill:#B7B7B7;}
	.st2{fill:none;stroke:#FED307;stroke-width:0.5;stroke-miterlimit:10;}
	.st3{fill:none;}
	.st4{fill:#6D6E71;}
	.st5{fill:#FFFFFF;}
	.st6{fill:none;stroke:#E6E7E8;stroke-miterlimit:10;}
</style>
<g>
	<path class="st0" d="M-600.8-142.1c-1.2-1.8-2.2-3.7-2.8-5.8c-2,2.4-4.7,3.8-7.5,3.8c-5.4,0-10-4.8-10-10.5c0-5.7,4.6-10.5,10-10.5
		c2.7,0,5.5,1.4,7.5,3.7c1.1-3.5,3.1-6.6,5.7-9.1c-3.6-3.1-8.2-4.7-13.2-4.7c-5.6,0-10.7,2.1-14.6,5.9c-3.8,3.9-5.9,9.1-5.9,14.6
		c0,5.5,2.1,10.6,5.9,14.5l0.1,0.1c3.9,3.8,9,5.9,14.5,5.9c4.9,0,9.6-1.7,13.2-4.7C-599-139.7-599.9-140.8-600.8-142.1z"/>
	<path class="st0" d="M-515.2-168.2c-3.4-3.3-7.9-5.2-12.7-5.2c-2.3,0-4.7,0.5-6.9,1.5c-2.2,1-4.1,2.3-5.8,4
		c-0.1,0.1-0.1,0.1-0.2,0.2l0,0h0c-0.1-0.1-0.1-0.1-0.2-0.2c-1.7-1.7-3.6-3.1-5.8-4c-2.3-1-4.6-1.5-6.9-1.5c-4.6,0-9,1.8-12.4,4.9
		c2.6,3,4.3,6.8,4.9,10.9c0.9-3.3,4-6,7.5-6c4.4,0,7.9,3.7,7.9,8.1v19.8h5h5v-19.8c0-4.4,3.6-8.1,7.9-8.1c4.2,0,7.8,3.8,7.8,8.1
		v19.8h10.1v-19.8C-510-160.2-511.8-164.7-515.2-168.2z"/>
	<path class="st0" d="M-460.8-168.2c-3.4-3.3-7.9-5.2-12.7-5.2c-2.3,0-4.7,0.5-6.9,1.5c-2.2,1-4.1,2.3-5.8,4
		c-0.1,0.1-0.1,0.1-0.2,0.2h0h0c-0.1-0.1-0.1-0.1-0.2-0.2c-1.7-1.7-3.6-3.1-5.8-4c-2.3-1-4.6-1.5-6.9-1.5c-4.6,0-9,1.8-12.4,4.9
		c2.6,3,4.3,6.8,4.9,10.9c0.9-3.3,4-6,7.5-6c4.4,0,7.9,3.7,7.9,8.1v19.8h5h5v-19.8c0-4.4,3.6-8.1,7.9-8.1c4.2,0,7.8,3.8,7.8,8.1
		v19.8h10.1v-19.8C-455.5-160.2-457.4-164.7-460.8-168.2z"/>
	<path class="st0" d="M-571.6-135.7L-571.6-135.7l10.1,0.1v-14c-0.9,4-2.9,7.7-5.8,10.6C-568.6-137.8-570.1-136.7-571.6-135.7z"/>
	<path class="st0" d="M-582.8-173.3c-1.6,0-3.2,0.2-4.8,0.6c-8.1,2.1-14.1,9.5-14.1,18.3c0,4,1.2,7.7,3.3,10.7
		c2.8,4.1,7.2,7,12.3,7.9c0,0,0,0,0.1,0c2.5-1.7,3.9-4.8,3.4-7.8c-0.1,0-0.1,0-0.2,0c-4.4,0-8.2-2.6-9.8-6.4c-0.7-1.5-1-3.2-0.9-4.9
		c0.3-5.6,4.9-10.1,10.6-10.2c5.7-0.1,10.4,4.3,10.9,9.8c0,0.3,0,1,0,1l0,0.3c0.2,9-5.9,16.1-14,18.3c0,0,0,0,0,0
		c1.1,0.2,2.1,0.3,3.2,0.3c10.5,0,19-8.5,18.9-19C-564-164.8-572.5-173.3-582.8-173.3z"/>
	<path class="st0" d="M-435.6-170.9C-435.6-170.9-435.7-170.9-435.6-170.9c-2.8-1.6-6-2.5-9.3-2.5c-4.7,0-9.1,1.7-12.4,4.6
		c2.2,2.7,3.7,5.9,4.3,9.2c1.7-2.7,4.6-4.5,8-4.5c5.2,0,9.5,4.2,9.5,9.5c0,5.2-4.2,9.5-9.5,9.5c-3.1,0-5.9-1.5-7.6-3.9v11.6
		c2.3,1,4.9,1.6,7.6,1.6c3.4,0,6.5-0.9,9.3-2.4v2.4h9.6v-18.8C-426.1-161.5-429.9-167.6-435.6-170.9z"/>
	<g>
		<path class="st1" d="M-491.3-132.6h1.9l2.1,3.4l2.1-3.4h1.9v7.9h-1.7v-5.2l-2.2,3.4h0l-2.2-3.4v5.2h-1.7V-132.6z"/>
		<path class="st1" d="M-474.6-132.6h6v1.6h-4.3v1.6h3.7v1.6h-3.7v1.7h4.3v1.6h-6V-132.6z"/>
		<path class="st1" d="M-460.2-132.6h3.1c2.5,0,4.2,1.7,4.2,3.9v0c0,2.2-1.7,4-4.2,4h-3.1V-132.6z M-457.1-126.2
			c1.4,0,2.4-1,2.4-2.4v0c0-1.4-1-2.4-2.4-2.4h-1.4v4.8H-457.1z"/>
		<path class="st1" d="M-444.5-132.6h1.7v7.9h-1.7V-132.6z"/>
		<path class="st1" d="M-431.2-132.7h1.6l3.4,8h-1.8l-0.7-1.8h-3.4l-0.7,1.8h-1.8L-431.2-132.7z M-429.4-128l-1.1-2.6l-1.1,2.6
			H-429.4z"/>
	</g>
</g>
<path class="st0" d="M-485.9-124.7c-0.8,0-1.6,0.1-2.4,0.3c-4.1,1.1-7.1,4.8-7.1,9.1c0,2,0.6,3.8,1.7,5.4c1.4,2,3.6,3.5,6.1,3.9
	c0,0,0,0,0,0c1.3-0.9,1.9-2.4,1.7-3.9c0,0-0.1,0-0.1,0c-2.2,0-4.1-1.3-4.9-3.2c-0.3-0.7-0.5-1.6-0.5-2.5c0.1-2.8,2.5-5.1,5.3-5.1
	c2.9,0,5.2,2.1,5.5,4.9c0,0.2,0,0.5,0,0.5l0,0.1c0.1,4.5-3,8.1-7,9.1c0,0,0,0,0,0c0.5,0.1,1.1,0.1,1.6,0.1c5.2,0,9.5-4.3,9.4-9.5
	C-476.4-120.5-480.7-124.7-485.9-124.7z"/>
<path class="st0" d="M-641-161.6c-0.8,0-1.6,0.1-2.4,0.3c-4.1,1.1-7.1,4.8-7.1,9.1c0,2,0.6,3.8,1.7,5.4c1.4,2,3.6,3.5,6.1,3.9
	c0,0,0,0,0,0c1.3-0.9,1.9-2.4,1.7-3.9c0,0-0.1,0-0.1,0c-2.2,0-4.1-1.3-4.9-3.2c-0.3-0.7-0.5-1.6-0.5-2.5c0.1-2.8,2.5-5.1,5.3-5.1
	c2.9,0,5.2,2.1,5.5,4.9c0,0.2,0,0.5,0,0.5l0,0.1c0.1,4.5-3,8.1-7,9.1c0,0,0,0,0,0c0.5,0.1,1.1,0.1,1.6,0.1c5.2,0,9.5-4.3,9.4-9.5
	C-631.6-157.4-635.8-161.6-641-161.6z"/>
<path class="st0" d="M-611.2-193.8c-0.8,0-1.6,0.1-2.4,0.3c-4.1,1.1-7.1,4.8-7.1,9.1c0,2,0.6,3.8,1.7,5.4c1.4,2,3.6,3.5,6.1,3.9
	c0,0,0,0,0,0c1.3-0.9,1.9-2.4,1.7-3.9c0,0-0.1,0-0.1,0c-2.2,0-4.1-1.3-4.9-3.2c-0.3-0.7-0.5-1.6-0.5-2.5c0.1-2.8,2.5-5.1,5.3-5.1
	c2.9,0,5.2,2.1,5.5,4.9c0,0.2,0,0.5,0,0.5l0,0.1c0.1,4.5-3,8.1-7,9.1c0,0,0,0,0,0c0.5,0.1,1.1,0.1,1.6,0.1c5.2,0,9.5-4.3,9.4-9.5
	C-601.8-189.6-606-193.8-611.2-193.8z"/>
<path class="st0" d="M-416.7-165.2c-0.8,0-1.6,0.1-2.4,0.3c-4.1,1.1-7.1,4.8-7.1,9.1c0,2,0.6,3.8,1.7,5.4c1.4,2,3.6,3.5,6.1,3.9
	c0,0,0,0,0,0c1.3-0.9,1.9-2.4,1.7-3.9c0,0-0.1,0-0.1,0c-2.2,0-4.1-1.3-4.9-3.2c-0.3-0.7-0.5-1.6-0.5-2.5c0.1-2.8,2.5-5.1,5.3-5.1
	c2.9,0,5.2,2.1,5.5,4.9c0,0.2,0,0.5,0,0.5l0,0.1c0.1,4.5-3,8.1-7,9.1c0,0,0,0,0,0c0.5,0.1,1.1,0.1,1.6,0.1c5.2,0,9.5-4.3,9.4-9.5
	C-407.2-161-411.5-165.2-416.7-165.2z"/>
<rect x="-650.5" y="-193.8" class="st2" width="243.2" height="87.4"/>
<rect x="-631.5" y="-174.9" class="st2" width="205.3" height="50.3"/>
<g>
	<g>
		<path class="st0" d="M-633.5,226.7c-1.2-1.8-2.2-3.7-2.8-5.8c-2,2.4-4.7,3.8-7.5,3.8c-5.4,0-10-4.8-10-10.5
			c0-5.7,4.6-10.5,10-10.5c2.7,0,5.5,1.4,7.5,3.7c1.1-3.5,3.1-6.6,5.7-9.1c-3.6-3.1-8.2-4.7-13.2-4.7c-5.6,0-10.7,2.1-14.6,5.9
			c-3.8,3.9-5.9,9.1-5.9,14.6c0,5.5,2.1,10.6,5.9,14.5l0.1,0.1c3.9,3.8,9,5.9,14.5,5.9c4.9,0,9.6-1.7,13.2-4.7
			C-631.7,229-632.6,227.9-633.5,226.7z"/>
		<path class="st0" d="M-547.9,200.6c-3.4-3.3-7.9-5.2-12.7-5.2c-2.3,0-4.7,0.5-6.9,1.5c-2.2,1-4.1,2.3-5.8,4
			c-0.1,0.1-0.1,0.1-0.2,0.2l0,0l0,0c-0.1-0.1-0.1-0.1-0.2-0.2c-1.7-1.7-3.6-3.1-5.8-4c-2.3-1-4.6-1.5-6.9-1.5
			c-4.6,0-9,1.8-12.4,4.9c2.6,3,4.3,6.8,4.9,10.9c0.9-3.3,4-6,7.5-6c4.4,0,7.9,3.7,7.9,8.1v19.8h5h5v-19.8c0-4.4,3.6-8.1,7.9-8.1
			c4.2,0,7.8,3.8,7.8,8.1v19.8h10.1v-19.8C-542.6,208.6-544.5,204-547.9,200.6z"/>
		<path class="st0" d="M-493.4,200.6c-3.4-3.3-7.9-5.2-12.7-5.2c-2.3,0-4.7,0.5-6.9,1.5c-2.2,1-4.1,2.3-5.8,4
			c-0.1,0.1-0.1,0.1-0.2,0.2l0,0v0c-0.1-0.1-0.1-0.1-0.2-0.2c-1.7-1.7-3.6-3.1-5.8-4c-2.3-1-4.6-1.5-6.9-1.5c-4.6,0-9,1.8-12.4,4.9
			c2.6,3,4.3,6.8,4.9,10.9c0.9-3.3,4-6,7.5-6c4.4,0,7.9,3.7,7.9,8.1v19.8h5h5v-19.8c0-4.4,3.6-8.1,7.9-8.1c4.2,0,7.8,3.8,7.8,8.1
			v19.8h10.1v-19.8C-488.2,208.6-490.1,204-493.4,200.6z"/>
		<path class="st0" d="M-604.3,233L-604.3,233l10.1,0.1v-14c-0.9,4-2.9,7.7-5.8,10.6C-601.3,231-602.8,232.1-604.3,233z"/>
		<path class="st0" d="M-615.5,195.5c-1.6,0-3.2,0.2-4.8,0.6c-8.1,2.1-14.1,9.5-14.1,18.3c0,4,1.2,7.7,3.3,10.7
			c2.8,4.1,7.2,7,12.3,7.9c0,0,0,0,0.1,0c2.5-1.7,3.9-4.8,3.4-7.8c-0.1,0-0.1,0-0.2,0c-4.4,0-8.2-2.6-9.8-6.4
			c-0.7-1.5-1-3.2-0.9-4.9c0.3-5.6,4.9-10.1,10.6-10.2c5.7-0.1,10.4,4.3,10.9,9.8c0,0.3,0,1,0,1l0,0.3c0.2,9-5.9,16.1-14,18.3
			c0,0,0,0,0,0c1.1,0.2,2.1,0.3,3.2,0.3c10.5,0,19-8.5,18.9-19C-596.7,203.9-605.2,195.5-615.5,195.5z"/>
		<path class="st0" d="M-468.3,197.9C-468.3,197.9-468.3,197.9-468.3,197.9c-2.8-1.6-6-2.5-9.3-2.5c-4.7,0-9.1,1.7-12.4,4.6
			c2.2,2.7,3.7,5.9,4.3,9.2c1.7-2.7,4.6-4.5,8-4.5c5.2,0,9.5,4.2,9.5,9.5c0,5.2-4.2,9.5-9.5,9.5c-3.1,0-5.9-1.5-7.6-3.9v11.6
			c2.3,1,4.9,1.6,7.6,1.6c3.4,0,6.5-0.9,9.3-2.4v2.4h9.6v-18.8C-458.8,207.3-462.6,201.1-468.3,197.9z"/>
		<g>
			<path class="st1" d="M-524,236.2h1.9l2.1,3.4l2.1-3.4h1.9v7.9h-1.7v-5.2l-2.2,3.4h0l-2.2-3.4v5.2h-1.7V236.2z"/>
			<path class="st1" d="M-507.3,236.2h6v1.6h-4.3v1.6h3.7v1.6h-3.7v1.7h4.3v1.6h-6V236.2z"/>
			<path class="st1" d="M-492.9,236.2h3.1c2.5,0,4.2,1.7,4.2,3.9v0c0,2.2-1.7,4-4.2,4h-3.1V236.2z M-489.8,242.5
				c1.4,0,2.4-1,2.4-2.4v0c0-1.4-1-2.4-2.4-2.4h-1.4v4.8H-489.8z"/>
			<path class="st1" d="M-477.1,236.2h1.7v7.9h-1.7V236.2z"/>
			<path class="st1" d="M-463.9,236.1h1.6l3.4,8h-1.8l-0.7-1.8h-3.4l-0.7,1.8h-1.8L-463.9,236.1z M-462,240.8l-1.1-2.6l-1.1,2.6
				H-462z"/>
		</g>
	</g>
	<rect x="-683.1" y="174.9" class="st3" width="243.2" height="87.4"/>
</g>
<g>
	<g>
		<path class="st0" d="M-633.5,36.2c-1.2-1.8-2.2-3.7-2.8-5.8c-2,2.4-4.7,3.8-7.5,3.8c-5.4,0-10-4.8-10-10.5c0-5.7,4.6-10.5,10-10.5
			c2.7,0,5.5,1.4,7.5,3.7c1.1-3.5,3.1-6.6,5.7-9.1c-3.6-3.1-8.2-4.7-13.2-4.7c-5.6,0-10.7,2.1-14.6,5.9c-3.8,3.9-5.9,9.1-5.9,14.6
			s2.1,10.6,5.9,14.5l0.1,0.1c3.9,3.8,9,5.9,14.5,5.9c4.9,0,9.6-1.7,13.2-4.7C-631.7,38.5-632.6,37.4-633.5,36.2z"/>
		<path class="st0" d="M-547.9,10.1c-3.4-3.3-7.9-5.2-12.7-5.2c-2.3,0-4.7,0.5-6.9,1.5c-2.2,1-4.1,2.3-5.8,4
			c-0.1,0.1-0.1,0.1-0.2,0.2h0h0c-0.1-0.1-0.1-0.1-0.2-0.2c-1.7-1.7-3.6-3.1-5.8-4c-2.3-1-4.6-1.5-6.9-1.5c-4.6,0-9,1.8-12.4,4.9
			c2.6,3,4.3,6.8,4.9,10.9c0.9-3.3,4-6,7.5-6c4.4,0,7.9,3.7,7.9,8.1v19.8h5h5V22.8c0-4.4,3.6-8.1,7.9-8.1c4.2,0,7.8,3.8,7.8,8.1
			v19.8h10.1V22.8C-542.6,18-544.5,13.5-547.9,10.1z"/>
		<path class="st0" d="M-493.4,10.1c-3.4-3.3-7.9-5.2-12.7-5.2c-2.3,0-4.7,0.5-6.9,1.5c-2.2,1-4.1,2.3-5.8,4
			c-0.1,0.1-0.1,0.1-0.2,0.2h0l0,0c-0.1-0.1-0.1-0.1-0.2-0.2c-1.7-1.7-3.6-3.1-5.8-4c-2.3-1-4.6-1.5-6.9-1.5c-4.6,0-9,1.8-12.4,4.9
			c2.6,3,4.3,6.8,4.9,10.9c0.9-3.3,4-6,7.5-6c4.4,0,7.9,3.7,7.9,8.1v19.8h5h5V22.8c0-4.4,3.6-8.1,7.9-8.1c4.2,0,7.8,3.8,7.8,8.1
			v19.8h10.1V22.8C-488.2,18-490.1,13.5-493.4,10.1z"/>
		<path class="st0" d="M-604.3,42.5L-604.3,42.5l10.1,0.1v-14c-0.9,4-2.9,7.7-5.8,10.6C-601.3,40.5-602.8,41.6-604.3,42.5z"/>
		<path class="st0" d="M-615.5,5c-1.6,0-3.2,0.2-4.8,0.6c-8.1,2.1-14.1,9.5-14.1,18.3c0,4,1.2,7.7,3.3,10.7c2.8,4.1,7.2,7,12.3,7.9
			c0,0,0,0,0.1,0c2.5-1.7,3.9-4.8,3.4-7.8c-0.1,0-0.1,0-0.2,0c-4.4,0-8.2-2.6-9.8-6.4c-0.7-1.5-1-3.2-0.9-4.9
			c0.3-5.6,4.9-10.1,10.6-10.2c5.7-0.1,10.4,4.3,10.9,9.8c0,0.3,0,1,0,1l0,0.3c0.2,9-5.9,16.1-14,18.3c0,0,0,0,0,0
			c1.1,0.2,2.1,0.3,3.2,0.3c10.5,0,19-8.5,18.9-19C-596.7,13.4-605.2,5-615.5,5z"/>
		<path class="st0" d="M-468.3,7.4C-468.3,7.4-468.3,7.4-468.3,7.4c-2.8-1.6-6-2.5-9.3-2.5c-4.7,0-9.1,1.7-12.4,4.6
			c2.2,2.7,3.7,5.9,4.3,9.2c1.7-2.7,4.6-4.5,8-4.5c5.2,0,9.5,4.2,9.5,9.5s-4.2,9.5-9.5,9.5c-3.1,0-5.9-1.5-7.6-3.9v11.6
			c2.3,1,4.9,1.6,7.6,1.6c3.4,0,6.5-0.9,9.3-2.4v2.4h9.6V23.7C-458.8,16.7-462.6,10.6-468.3,7.4z"/>
		<g>
			<path class="st0" d="M-524,45.6h1.9l2.1,3.4l2.1-3.4h1.9v7.9h-1.7v-5.2l-2.2,3.4h0l-2.2-3.4v5.2h-1.7V45.6z"/>
			<path class="st0" d="M-507.3,45.6h6v1.6h-4.3v1.6h3.7v1.6h-3.7V52h4.3v1.6h-6V45.6z"/>
			<path class="st0" d="M-492.9,45.6h3.1c2.5,0,4.2,1.7,4.2,3.9v0c0,2.2-1.7,4-4.2,4h-3.1V45.6z M-489.8,52c1.4,0,2.4-1,2.4-2.4v0
				c0-1.4-1-2.4-2.4-2.4h-1.4V52H-489.8z"/>
			<path class="st0" d="M-477.1,45.6h1.7v7.9h-1.7V45.6z"/>
			<path class="st0" d="M-463.9,45.6h1.6l3.4,8h-1.8l-0.7-1.8h-3.4l-0.7,1.8h-1.8L-463.9,45.6z M-462,50.3l-1.1-2.6l-1.1,2.6H-462z"
				/>
		</g>
	</g>
	<rect x="-683.1" y="-15.6" class="st3" width="243.2" height="87.4"/>
</g>
<g>
	<g>
		<path class="st4" d="M-633.5,419.8c-1.2-1.8-2.2-3.7-2.8-5.8c-2,2.4-4.7,3.8-7.5,3.8c-5.4,0-10-4.8-10-10.5
			c0-5.7,4.6-10.5,10-10.5c2.7,0,5.5,1.4,7.5,3.7c1.1-3.5,3.1-6.6,5.7-9.1c-3.6-3.1-8.2-4.7-13.2-4.7c-5.6,0-10.7,2.1-14.6,5.9
			c-3.8,3.9-5.9,9.1-5.9,14.6c0,5.5,2.1,10.6,5.9,14.5l0.1,0.1c3.9,3.8,9,5.9,14.5,5.9c4.9,0,9.6-1.7,13.2-4.7
			C-631.7,422.1-632.6,421-633.5,419.8z"/>
		<path class="st4" d="M-547.9,393.7c-3.4-3.3-7.9-5.2-12.7-5.2c-2.3,0-4.7,0.5-6.9,1.5c-2.2,1-4.1,2.3-5.8,4
			c-0.1,0.1-0.1,0.1-0.2,0.2h0h0c-0.1-0.1-0.1-0.1-0.2-0.2c-1.7-1.7-3.6-3.1-5.8-4c-2.3-1-4.6-1.5-6.9-1.5c-4.6,0-9,1.8-12.4,4.9
			c2.6,3,4.3,6.8,4.9,10.9c0.9-3.3,4-6,7.5-6c4.4,0,7.9,3.7,7.9,8.1v19.8h5h5v-19.8c0-4.4,3.6-8.1,7.9-8.1c4.2,0,7.8,3.8,7.8,8.1
			v19.8h10.1v-19.8C-542.6,401.6-544.5,397.1-547.9,393.7z"/>
		<path class="st4" d="M-493.4,393.7c-3.4-3.3-7.9-5.2-12.7-5.2c-2.3,0-4.7,0.5-6.9,1.5c-2.2,1-4.1,2.3-5.8,4
			c-0.1,0.1-0.1,0.1-0.2,0.2h0l0,0c-0.1-0.1-0.1-0.1-0.2-0.2c-1.7-1.7-3.6-3.1-5.8-4c-2.3-1-4.6-1.5-6.9-1.5c-4.6,0-9,1.8-12.4,4.9
			c2.6,3,4.3,6.8,4.9,10.9c0.9-3.3,4-6,7.5-6c4.4,0,7.9,3.7,7.9,8.1v19.8h5h5v-19.8c0-4.4,3.6-8.1,7.9-8.1c4.2,0,7.8,3.8,7.8,8.1
			v19.8h10.1v-19.8C-488.2,401.6-490.1,397.1-493.4,393.7z"/>
		<path class="st4" d="M-604.3,426.1L-604.3,426.1l10.1,0.1v-14c-0.9,4-2.9,7.7-5.8,10.6C-601.3,424.1-602.8,425.2-604.3,426.1z"/>
		<path class="st4" d="M-615.5,388.6c-1.6,0-3.2,0.2-4.8,0.6c-8.1,2.1-14.1,9.5-14.1,18.3c0,4,1.2,7.7,3.3,10.7
			c2.8,4.1,7.2,7,12.3,7.9c0,0,0,0,0.1,0c2.5-1.7,3.9-4.8,3.4-7.8c-0.1,0-0.1,0-0.2,0c-4.4,0-8.2-2.6-9.8-6.4
			c-0.7-1.5-1-3.2-0.9-4.9c0.3-5.6,4.9-10.1,10.6-10.2c5.7-0.1,10.4,4.3,10.9,9.8c0,0.3,0,1,0,1l0,0.3c0.2,9-5.9,16.1-14,18.3
			c0,0,0,0,0,0c1.1,0.2,2.1,0.3,3.2,0.3c10.5,0,19-8.5,18.9-19C-596.7,397-605.2,388.6-615.5,388.6z"/>
		<path class="st4" d="M-468.3,391C-468.3,391-468.3,391-468.3,391c-2.8-1.6-6-2.5-9.3-2.5c-4.7,0-9.1,1.7-12.4,4.6
			c2.2,2.7,3.7,5.9,4.3,9.2c1.7-2.7,4.6-4.5,8-4.5c5.2,0,9.5,4.2,9.5,9.5c0,5.2-4.2,9.5-9.5,9.5c-3.1,0-5.9-1.5-7.6-3.9v11.6
			c2.3,1,4.9,1.6,7.6,1.6c3.4,0,6.5-0.9,9.3-2.4v2.4h9.6v-18.8C-458.8,400.3-462.6,394.2-468.3,391z"/>
		<g>
			<path class="st4" d="M-524,429.2h1.9l2.1,3.4l2.1-3.4h1.9v7.9h-1.7V432l-2.2,3.4h0l-2.2-3.4v5.2h-1.7V429.2z"/>
			<path class="st4" d="M-507.3,429.2h6v1.6h-4.3v1.6h3.7v1.6h-3.7v1.7h4.3v1.6h-6V429.2z"/>
			<path class="st4" d="M-492.9,429.2h3.1c2.5,0,4.2,1.7,4.2,3.9v0c0,2.2-1.7,4-4.2,4h-3.1V429.2z M-489.8,435.6
				c1.4,0,2.4-1,2.4-2.4v0c0-1.4-1-2.4-2.4-2.4h-1.4v4.8H-489.8z"/>
			<path class="st4" d="M-477.1,429.2h1.7v7.9h-1.7V429.2z"/>
			<path class="st4" d="M-463.9,429.2h1.6l3.4,8h-1.8l-0.7-1.8h-3.4l-0.7,1.8h-1.8L-463.9,429.2z M-462,433.9l-1.1-2.6l-1.1,2.6
				H-462z"/>
		</g>
	</g>
	<rect x="-683.1" y="368" class="st3" width="243.2" height="87.4"/>
</g>
<g>
	<g>
		<path class="st1" d="M-36,174.2c-1.2-1.8-2.2-3.7-2.8-5.8c-2,2.4-4.7,3.8-7.5,3.8c-5.4,0-10-4.8-10-10.5c0-5.7,4.6-10.5,10-10.5
			c2.7,0,5.5,1.4,7.5,3.7c1.1-3.5,3.1-6.6,5.7-9.1c-3.6-3.1-8.2-4.7-13.2-4.7c-5.6,0-10.7,2.1-14.6,5.9c-3.8,3.9-5.9,9.1-5.9,14.6
			s2.1,10.6,5.9,14.5l0.1,0.1c3.9,3.8,9,5.9,14.5,5.9c4.9,0,9.6-1.7,13.2-4.7C-34.2,176.5-35.2,175.4-36,174.2z"/>
		<path class="st1" d="M49.6,148.1c-3.4-3.3-7.9-5.2-12.7-5.2c-2.3,0-4.7,0.5-6.9,1.5c-2.2,1-4.1,2.3-5.8,4
			c-0.1,0.1-0.1,0.1-0.2,0.2l0,0v0c-0.1-0.1-0.1-0.1-0.2-0.2c-1.7-1.7-3.6-3.1-5.8-4c-2.3-1-4.6-1.5-6.9-1.5c-4.6,0-9,1.8-12.4,4.9
			c2.6,3,4.3,6.8,4.9,10.9c0.9-3.3,4-6,7.5-6c4.4,0,7.9,3.7,7.9,8.1v19.8h5h5v-19.8c0-4.4,3.6-8.1,7.9-8.1c4.2,0,7.8,3.8,7.8,8.1
			v19.8h10.1v-19.8C54.8,156,53,151.5,49.6,148.1z"/>
		<path class="st1" d="M104,148.1c-3.4-3.3-7.9-5.2-12.7-5.2c-2.3,0-4.7,0.5-6.9,1.5c-2.2,1-4.1,2.3-5.8,4c-0.1,0.1-0.1,0.1-0.2,0.2
			l0,0l0,0c-0.1-0.1-0.1-0.1-0.2-0.2c-1.7-1.7-3.6-3.1-5.8-4c-2.3-1-4.6-1.5-6.9-1.5c-4.6,0-9,1.8-12.4,4.9c2.6,3,4.3,6.8,4.9,10.9
			c0.9-3.3,4-6,7.5-6c4.4,0,7.9,3.7,7.9,8.1v19.8h5h5v-19.8c0-4.4,3.6-8.1,7.9-8.1c4.2,0,7.8,3.8,7.8,8.1v19.8h10.1v-19.8
			C109.3,156,107.4,151.5,104,148.1z"/>
		<path class="st1" d="M-6.8,180.5L-6.8,180.5l10.1,0.1v-14c-0.9,4-2.9,7.7-5.8,10.6C-3.9,178.5-5.3,179.6-6.8,180.5z"/>
		<path class="st1" d="M-18.1,143c-1.6,0-3.2,0.2-4.8,0.6c-8.1,2.1-14.1,9.5-14.1,18.3c0,4,1.2,7.7,3.3,10.7c2.8,4.1,7.2,7,12.3,7.9
			c0,0,0,0,0.1,0c2.5-1.7,3.9-4.8,3.4-7.8c-0.1,0-0.1,0-0.2,0c-4.4,0-8.2-2.6-9.8-6.4c-0.7-1.5-1-3.2-0.9-4.9
			c0.3-5.6,4.9-10.1,10.6-10.2c5.7-0.1,10.4,4.3,10.9,9.8c0,0.3,0,1,0,1l0,0.3c0.2,9-5.9,16.1-14,18.3c0,0,0,0,0,0
			c1.1,0.2,2.1,0.3,3.2,0.3c10.5,0,19-8.5,18.9-19C0.8,151.4-7.7,143-18.1,143z"/>
		<path class="st1" d="M129.2,145.4C129.1,145.4,129.1,145.4,129.2,145.4c-2.8-1.6-6-2.5-9.3-2.5c-4.7,0-9.1,1.7-12.4,4.6
			c2.2,2.7,3.7,5.9,4.3,9.2c1.7-2.7,4.6-4.5,8-4.5c5.2,0,9.5,4.2,9.5,9.5s-4.2,9.5-9.5,9.5c-3.1,0-5.9-1.5-7.6-3.9v11.6
			c2.3,1,4.9,1.6,7.6,1.6c3.4,0,6.5-0.9,9.3-2.4v2.4h9.6v-18.8C138.7,154.7,134.8,148.6,129.2,145.4z"/>
		<g>
			<path class="st1" d="M73.5,183.6h1.9l2.1,3.4l2.1-3.4h1.9v7.9h-1.7v-5.2l-2.2,3.4h0l-2.2-3.4v5.2h-1.7V183.6z"/>
			<path class="st1" d="M90.1,183.6h6v1.6h-4.3v1.6h3.7v1.6h-3.7v1.7h4.3v1.6h-6V183.6z"/>
			<path class="st1" d="M104.6,183.6h3.1c2.5,0,4.2,1.7,4.2,3.9v0c0,2.2-1.7,4-4.2,4h-3.1V183.6z M107.7,190c1.4,0,2.4-1,2.4-2.4v0
				c0-1.4-1-2.4-2.4-2.4h-1.4v4.8H107.7z"/>
			<path class="st1" d="M120.3,183.6h1.7v7.9h-1.7V183.6z"/>
			<path class="st1" d="M133.6,183.6h1.6l3.4,8h-1.8l-0.7-1.8h-3.4l-0.7,1.8h-1.8L133.6,183.6z M135.4,188.3l-1.1-2.6l-1.1,2.6
				H135.4z"/>
		</g>
	</g>
</g>
<path class="st1" d="M19.5,0.6c-1.6,0-3.2,0.2-4.8,0.6C6.6,3.3,0.6,10.7,0.6,19.5c0,4,1.2,7.7,3.3,10.7c2.8,4.1,7.2,7,12.3,7.9
	c0,0,0,0,0.1,0c2.5-1.7,3.9-4.8,3.4-7.8c-0.1,0-0.1,0-0.2,0c-4.4,0-8.2-2.6-9.8-6.4c-0.7-1.5-1-3.2-0.9-4.9
	C9,13.3,13.7,8.8,19.3,8.7C25,8.6,29.7,13,30.2,18.6c0,0.3,0,1,0,1l0,0.3c0.2,9-5.9,16.1-14,18.3c0,0,0,0,0,0
	c1.1,0.2,2.1,0.3,3.2,0.3c10.5,0,19-8.5,18.9-19C38.3,9,29.8,0.6,19.5,0.6z"/>
<g>
	<rect x="-407.6" y="368" class="st1" width="243.2" height="87.4"/>
	<g>
		<path class="st5" d="M-358,419.8c-1.2-1.8-2.2-3.7-2.8-5.8c-2,2.4-4.7,3.8-7.5,3.8c-5.4,0-10-4.8-10-10.5c0-5.7,4.6-10.5,10-10.5
			c2.7,0,5.5,1.4,7.5,3.7c1.1-3.5,3.1-6.6,5.7-9.1c-3.6-3.1-8.2-4.7-13.2-4.7c-5.6,0-10.7,2.1-14.6,5.9c-3.8,3.9-5.9,9.1-5.9,14.6
			c0,5.5,2.1,10.6,5.9,14.5l0.1,0.1c3.9,3.8,9,5.9,14.5,5.9c4.9,0,9.6-1.7,13.2-4.7C-356.2,422.1-357.1,421-358,419.8z"/>
		<path class="st5" d="M-272.4,393.7c-3.4-3.3-7.9-5.2-12.7-5.2c-2.3,0-4.7,0.5-6.9,1.5c-2.2,1-4.1,2.3-5.8,4
			c-0.1,0.1-0.1,0.1-0.2,0.2h0l0,0c-0.1-0.1-0.1-0.1-0.2-0.2c-1.7-1.7-3.6-3.1-5.8-4c-2.3-1-4.6-1.5-6.9-1.5c-4.6,0-9,1.8-12.4,4.9
			c2.6,3,4.3,6.8,4.9,10.9c0.9-3.3,4-6,7.5-6c4.4,0,7.9,3.7,7.9,8.1v19.8h5h5v-19.8c0-4.4,3.6-8.1,7.9-8.1c4.2,0,7.8,3.8,7.8,8.1
			v19.8h10.1v-19.8C-267.1,401.6-269,397.1-272.4,393.7z"/>
		<path class="st5" d="M-217.9,393.7c-3.4-3.3-7.9-5.2-12.7-5.2c-2.3,0-4.7,0.5-6.9,1.5c-2.2,1-4.1,2.3-5.8,4
			c-0.1,0.1-0.1,0.1-0.2,0.2h0h0c-0.1-0.1-0.1-0.1-0.2-0.2c-1.7-1.7-3.6-3.1-5.8-4c-2.3-1-4.6-1.5-6.9-1.5c-4.6,0-9,1.8-12.4,4.9
			c2.6,3,4.3,6.8,4.9,10.9c0.9-3.3,4-6,7.5-6c4.4,0,7.9,3.7,7.9,8.1v19.8h5h5v-19.8c0-4.4,3.6-8.1,7.9-8.1c4.2,0,7.8,3.8,7.8,8.1
			v19.8h10.1v-19.8C-212.7,401.6-214.5,397.1-217.9,393.7z"/>
		<path class="st5" d="M-328.8,426.1L-328.8,426.1l10.1,0.1v-14c-0.9,4-2.9,7.7-5.8,10.6C-325.8,424.1-327.3,425.2-328.8,426.1z"/>
		<path class="st5" d="M-340,388.6c-1.6,0-3.2,0.2-4.8,0.6c-8.1,2.1-14.1,9.5-14.1,18.3c0,4,1.2,7.7,3.3,10.7
			c2.8,4.1,7.2,7,12.3,7.9c0,0,0,0,0.1,0c2.5-1.7,3.9-4.8,3.4-7.8c-0.1,0-0.1,0-0.2,0c-4.4,0-8.2-2.6-9.8-6.4
			c-0.7-1.5-1-3.2-0.9-4.9c0.3-5.6,4.9-10.1,10.6-10.2c5.7-0.1,10.4,4.3,10.9,9.8c0,0.3,0,1,0,1l0,0.3c0.2,9-5.9,16.1-14,18.3
			c0,0,0,0,0,0c1.1,0.2,2.1,0.3,3.2,0.3c10.5,0,19-8.5,18.9-19C-321.2,397-329.7,388.6-340,388.6z"/>
		<path class="st5" d="M-192.8,391C-192.8,391-192.8,391-192.8,391c-2.8-1.6-6-2.5-9.3-2.5c-4.7,0-9.1,1.7-12.4,4.6
			c2.2,2.7,3.7,5.9,4.3,9.2c1.7-2.7,4.6-4.5,8-4.5c5.2,0,9.5,4.2,9.5,9.5c0,5.2-4.2,9.5-9.5,9.5c-3.1,0-5.9-1.5-7.6-3.9v11.6
			c2.3,1,4.9,1.6,7.6,1.6c3.4,0,6.5-0.9,9.3-2.4v2.4h9.6v-18.8C-183.3,400.3-187.1,394.2-192.8,391z"/>
		<g>
			<path class="st5" d="M-248.5,429.2h1.9l2.1,3.4l2.1-3.4h1.9v7.9h-1.7V432l-2.2,3.4h0l-2.2-3.4v5.2h-1.7V429.2z"/>
			<path class="st5" d="M-231.8,429.2h6v1.6h-4.3v1.6h3.7v1.6h-3.7v1.7h4.3v1.6h-6V429.2z"/>
			<path class="st5" d="M-217.4,429.2h3.1c2.5,0,4.2,1.7,4.2,3.9v0c0,2.2-1.7,4-4.2,4h-3.1V429.2z M-214.3,435.6
				c1.4,0,2.4-1,2.4-2.4v0c0-1.4-1-2.4-2.4-2.4h-1.4v4.8H-214.3z"/>
			<path class="st5" d="M-201.6,429.2h1.7v7.9h-1.7V429.2z"/>
			<path class="st5" d="M-188.4,429.2h1.6l3.4,8h-1.8l-0.7-1.8h-3.4l-0.7,1.8h-1.8L-188.4,429.2z M-186.5,433.9l-1.1-2.6l-1.1,2.6
				H-186.5z"/>
		</g>
	</g>
</g>
<g>
	<polyline class="st6" points="-708.4,-75.9 -147.2,-75.9 -147.2,519.3 -708.4,519.3 	"/>
	<line class="st6" x1="-708.4" y1="320.9" x2="-147.2" y2="320.9"/>
	<line class="st6" x1="-708.4" y1="122.5" x2="-147.2" y2="122.5"/>
	<line class="st6" x1="-427.8" y1="-75.9" x2="-427.8" y2="519.3"/>
	<line class="st6" x1="-708.4" y1="-75.9" x2="-708.4" y2="519.3"/>
</g>
</svg>
